<svg xmlns="http://www.w3.org/2000/svg" viewBox="0 0 64 64" width="64" height="64">
  <circle cx="32" cy="32" r="28" fill="none" stroke="#fff" stroke-width="2"/>
  <path fill="#fff" d="M46.5 23.5c-1 .5-2 .8-3.1.9 1.1-.7 2-1.7 2.4-3-1 .6-2.2 1.1-3.4 1.3-1-1-2.3-1.7-3.9-1.7-3 0-5.3 2.5-5.3 5.4 0 .4 0 .8.1 1.2-4.4-.2-8.3-2.3-10.9-5.5-.5.8-.7 1.7-.7 2.7 0 1.9.9 3.5 2.4 4.5-.9 0-1.7-.3-2.4-.7v.1c0 2.6 1.8 4.8 4.2 5.3-.4.1-.9.2-1.4.2-.3 0-.7 0-1-.1.7 2.1 2.7 3.6 5 3.6-1.8 1.4-4.1 2.2-6.5 2.2-.4 0-.8 0-1.3-.1 2.3 1.5 5.1 2.4 8 2.4 9.6 0 14.9-8 14.9-14.9v-.7c1-.7 1.9-1.6 2.6-2.6z"/>
</svg>